<svg width="193" height="78" viewBox="0 0 193 78" fill="none" xmlns="http://www.w3.org/2000/svg">
<path d="M18.8353 23.4597C18.6662 23.4597 18.5169 23.4199 18.4174 23.39C18.0194 23.2605 17.701 22.9716 17.5418 22.5931C16.8752 20.9594 15.92 19.4751 14.7359 18.1701C13.6912 17.0245 12.4673 16.0582 11.0943 15.2812C10.6366 15.0222 10.358 14.5141 10.3878 13.9762C10.4177 13.4383 10.7659 12.9701 11.2634 12.7709C12.5171 12.2827 13.8802 12.0237 15.2036 12.0237C15.3429 12.0237 15.4921 12.0237 15.6414 12.0337C16.6662 12.0835 17.6612 12.2628 18.6065 12.5816C18.6363 12.2329 18.6861 11.8643 18.7358 11.4858C18.9348 10.2107 19.2731 8.96549 19.7408 7.76012C19.89 7.38158 20.1885 7.09269 20.5567 6.95323C20.7059 6.89346 20.8651 6.87353 21.0243 6.87353C21.2631 6.87353 21.492 6.9333 21.7009 7.05284C22.6561 7.59077 23.5218 8.21836 24.3476 8.96549C24.8153 9.41376 25.2332 9.85208 25.6013 10.3203C26.0491 9.56319 26.5864 8.87583 27.2033 8.24825C28.646 6.8038 30.1883 6.06664 31.2231 5.68809C31.3723 5.63828 31.5315 5.6084 31.6808 5.6084C32.0688 5.6084 32.437 5.76779 32.6957 6.04671C33.0738 6.45514 33.1733 7.04288 32.9544 7.55093C32.1484 9.44365 31.6211 11.4459 31.3823 13.518C31.1932 15.2214 31.2131 16.9448 31.4221 18.6283C31.4818 19.0168 31.3524 19.4253 31.0838 19.7241C30.8151 20.023 30.437 20.1923 30.039 20.1923C27.8699 20.2023 25.7207 20.5609 23.6511 21.2682C22.2183 21.7463 20.8452 22.3938 19.5617 23.1908C19.3826 23.3701 19.1239 23.4597 18.8353 23.4597ZM15.2633 14.823C15.7906 15.2812 16.2981 15.7693 16.7757 16.2873C17.8204 17.423 18.7159 18.6981 19.4522 20.0927C20.5268 19.5249 21.6611 19.0368 22.8054 18.6582C24.6561 18.0306 26.5864 17.6421 28.5465 17.5027C28.457 16.0582 28.4868 14.6337 28.646 13.239C28.7555 12.2429 28.9346 11.2467 29.1734 10.2705C28.248 11.2069 27.5615 12.3823 27.1834 13.6774C27.0341 14.2253 26.5565 14.6237 25.9695 14.6835C25.9197 14.6835 25.8799 14.6935 25.8401 14.6935C25.3128 14.6935 24.8352 14.3946 24.5964 13.9264C24.0591 12.8406 23.3427 11.8743 22.4571 11.0475C22.2482 10.8482 22.0293 10.659 21.8004 10.4797C21.6711 10.9777 21.5716 11.4559 21.5019 11.944C21.3626 12.8207 21.3029 13.7471 21.3328 14.6935C21.3427 15.2115 21.084 15.6896 20.6462 15.9387C20.4273 16.0582 20.1786 16.1279 19.9398 16.1279C19.691 16.1279 19.4522 16.0582 19.2333 15.9387C18.5965 15.5701 17.2632 14.9325 15.522 14.8628C15.4424 14.8329 15.3528 14.823 15.2633 14.823Z" fill="#FC98A4"/>
<path d="M19.6115 5.55861C18.6563 5.55861 17.8702 4.7816 17.8702 3.81532C17.8702 2.84903 18.6463 2.07202 19.6115 2.07202C20.5667 2.07202 21.3527 2.84903 21.3527 3.81532C21.3527 4.7816 20.5667 5.55861 19.6115 5.55861Z" fill="#FC98A4"/>
<path d="M44.8347 76.167C44.6556 76.167 44.4665 76.1372 44.3173 76.0674C44.1581 76.0077 43.969 75.9081 43.7103 75.7785L43.5412 75.6989C41.79 74.8023 37.7005 72.7004 32.1385 72.7004C31.243 72.7004 30.3375 72.7602 29.452 72.8697C28.0391 73.049 26.2879 73.5372 24.4272 74.0552L24.1785 74.1249C23.7208 74.2544 23.2531 74.3839 22.7755 74.5134C22.686 74.5333 22.5467 74.5632 22.3676 74.5632C21.8303 74.5632 21.3328 74.2943 20.9846 73.8161C20.8154 73.587 20.6562 73.2881 20.507 72.8996C20.3378 72.4613 20.1687 71.9134 19.9995 71.3356C19.313 74.0253 18.915 75.4996 17.5916 75.7088C16.0693 75.9579 14.6862 76.0774 13.3728 76.0774C13.1838 76.0774 12.9947 76.0774 12.8057 76.0674C12.348 76.0575 11.94 75.8483 11.6415 75.4996C11.154 74.9218 11.1142 74.1448 11.2933 72.7602C9.78086 74.2345 8.78586 75.0513 7.81076 75.0513C7.59186 75.0513 7.37296 75.0115 7.16401 74.9218C5.13421 74.0651 3.38301 72.81 1.81091 71.0866C1.53231 70.7977 1.40296 70.3893 1.46266 69.9808C1.50246 69.5724 1.72136 69.2138 2.06961 68.9946C6.74611 65.8268 9.48236 62.3402 10.1988 58.6245C10.7162 55.895 10.3381 52.2192 9.96991 48.6628C9.61171 45.1663 9.24356 41.5402 9.54206 38.1333C9.60176 37.4659 9.81071 36.0812 10.5072 34.2881C11.9997 30.4728 14.8554 27.3349 19.0145 24.9839C23.074 22.6728 26.9645 21.9356 28.059 21.7663C29.4022 21.5571 30.7853 21.4475 32.1584 21.4475C35.2827 21.4475 38.3771 22.0054 41.0935 23.0613C45.4416 24.7448 48.5659 27.5142 50.1181 31.0605C51.5808 34.4276 50.9738 38.0636 50.6057 40.2452C50.0883 43.3533 48.8545 46.1923 46.8048 50.9042C46.2973 52.0697 45.362 55.636 44.964 60.2582C44.6357 64.0038 44.5859 69.4927 46.1879 74.3441C46.357 74.8621 46.2177 75.4199 45.8297 75.7885C45.5411 76.0276 45.2028 76.167 44.8347 76.167ZM12.9947 67.9088C13.2833 67.9088 13.5619 67.9885 13.8007 68.1579C14.726 68.7854 14.5668 69.7816 14.2484 71.764C14.1489 72.3816 14.0693 72.8897 14.0295 73.2782C14.8255 73.2483 15.6713 73.1686 16.5966 73.0391C16.8255 72.4314 17.124 71.246 17.3031 70.5785C17.9996 67.8889 18.3379 66.5341 19.5816 66.2552C19.711 66.2253 19.8304 66.2153 19.9597 66.2153C21.1338 66.2153 21.6611 67.5004 21.8303 67.9287V67.9387C22.0691 68.5563 22.3079 69.3533 22.5069 70.0605C22.6064 70.4092 22.7955 71.0667 22.9646 71.5648C22.9845 71.5648 22.9944 71.5548 23.0143 71.5548C23.1437 71.5149 23.283 71.4851 23.4123 71.4452L23.7108 71.3655C25.6511 70.8276 27.4918 70.3096 29.1037 70.1103C30.1087 69.9808 31.1335 69.9211 32.1484 69.9211C35.6906 69.9211 39.2328 70.6881 42.7153 72.2123C41.79 67.7494 41.8895 63.1571 42.1581 60.0192C42.5362 55.5464 43.4815 51.492 44.2178 49.7885L44.2277 49.7686C46.2476 45.0866 47.362 42.5065 47.8197 39.777V39.7471C48.148 37.7648 48.6455 34.7563 47.5212 32.1762C45.4516 27.4245 39.2726 24.2368 32.1385 24.2368C30.9047 24.2368 29.6609 24.3364 28.447 24.5257C24.0193 25.223 15.8106 28.2713 13.0743 35.3042C12.4773 36.8383 12.3181 37.9739 12.2883 38.3824C12.0097 41.4805 12.3579 44.9272 12.7062 48.2544L12.736 48.5433C13.134 52.4184 13.5022 56.0743 12.9151 59.1525C12.1291 63.2069 9.47241 66.9724 4.99491 70.3295C5.85061 71.0766 6.77596 71.6843 7.80081 72.1625C8.35801 71.764 9.40276 70.7379 9.97986 70.1602L10.149 69.9908C10.955 69.1939 11.6515 68.5065 12.1888 68.1778C12.4276 67.9885 12.7062 67.9088 12.9947 67.9088Z" fill="#FC98A4"/>
<path d="M19.7209 55.4368C19.2234 55.4368 18.7557 55.1678 18.507 54.7295C18.1289 54.0521 18.3677 53.2054 19.0443 52.8268C21.2731 51.5816 23.273 50.0176 24.9745 48.1747C27.0043 46.0031 28.5963 43.4529 29.7107 40.6238C29.9097 40.0958 30.437 39.7372 31.0141 39.7372C31.1236 39.7372 31.233 39.7471 31.3425 39.777C32.0191 39.9464 32.4668 40.5939 32.3872 41.3012C32.1086 43.7019 31.5912 46.0828 30.8649 48.374C30.8052 48.5832 30.7355 48.7824 30.6659 48.9916C31.8101 47.9854 32.8947 46.9196 33.9195 45.7939C36.3473 43.1241 38.407 40.1755 40.0388 37.0276C40.2676 36.5594 40.7452 36.2705 41.2726 36.2705C41.392 36.2705 41.5114 36.2904 41.6308 36.3203C42.2576 36.4897 42.6855 37.0575 42.6755 37.715C42.576 40.813 41.989 43.8613 40.9442 46.7801C40.6955 47.4774 40.4169 48.1747 40.1084 48.8521C40.7253 48.354 41.3223 47.836 41.8895 47.2981C45.4814 43.8912 47.4316 40.3847 47.939 39.3885C48.1778 38.9203 48.6554 38.6314 49.1728 38.6314C49.3917 38.6314 49.6206 38.6912 49.8196 38.7908C50.1479 38.9602 50.3967 39.2491 50.5061 39.6077C50.6156 39.9663 50.5857 40.3448 50.4166 40.6736C49.8693 41.7594 47.7599 45.5847 43.8098 49.3402C41.6606 51.3923 39.2428 53.1157 36.6259 54.4506C36.4369 54.5502 36.208 54.6 35.9891 54.6C35.5812 54.6 35.1931 54.4207 34.9245 54.1119C34.5066 53.6238 34.4767 52.9165 34.8548 52.3885C36.3075 50.3962 37.4717 48.2046 38.3274 45.8536C38.5164 45.3257 38.6955 44.7778 38.8547 44.2299C37.9493 45.4452 36.9941 46.6107 35.9792 47.7165C33.6608 50.2567 31.034 52.528 28.1784 54.4605C27.9396 54.6199 27.6709 54.6996 27.3923 54.6996C27.054 54.6996 26.7356 54.5801 26.4869 54.3709C26.0093 53.9525 25.87 53.2651 26.1486 52.6973C26.666 51.6514 27.1237 50.5855 27.5217 49.5395C27.3525 49.7287 27.1834 49.928 27.0043 50.1173C25.1038 52.1694 22.875 53.9127 20.3875 55.2973C20.1985 55.3671 19.9696 55.4368 19.7209 55.4368Z" fill="#FC98A4"/>
<path d="M57.2324 56.9211C56.7647 56.9211 56.307 56.8613 55.8891 56.7517C54.4066 56.3533 53.531 55.2973 53.133 54.6996C52.5559 53.833 52.2872 52.8268 52.3171 51.7012C51.8594 51.6115 51.4813 51.3027 51.2922 50.8644C51.1529 50.5157 51.1529 50.1372 51.3022 49.7885C51.4514 49.4399 51.7201 49.1809 52.0683 49.0414C52.5459 48.8422 53.123 48.613 53.7001 48.4038L53.7698 48.3839H53.7797C53.919 48.3341 54.0683 48.3142 54.2076 48.3142C54.5956 48.3142 54.9737 48.4835 55.2324 48.7724C55.6205 49.2008 55.71 49.8084 55.4513 50.3265C55.4414 50.3464 54.6653 51.9801 55.4613 53.1755C55.6006 53.3946 55.9886 53.9027 56.6055 54.072C56.8145 54.1318 57.0135 54.1517 57.2324 54.1517C57.8095 54.1517 58.4562 53.9525 59.2025 53.5341C61.1825 52.4583 62.4362 50.2368 62.8442 47.1188L62.8541 47.0391C63.1228 44.987 62.874 44.3196 62.7049 44.1004C62.675 44.0605 62.6153 44.0008 62.3964 43.9709C61.8591 43.9211 59.093 43.4927 56.3269 42.895C50.4763 41.6498 49.2425 40.7134 48.7749 40.3648L48.755 40.3548C48.4565 40.1257 48.2674 39.7969 48.2276 39.4284C48.1779 39.0598 48.2873 38.6912 48.5162 38.4023C48.7749 38.0636 49.1729 37.8644 49.6107 37.8644C49.9191 37.8644 50.2276 37.974 50.4664 38.1632C52.1181 39.4582 61.0731 41.0621 62.6153 41.1916H62.6253H62.6452C63.5606 41.2812 64.3367 41.6897 64.864 42.3571C65.9287 43.7119 65.8093 45.764 65.5904 47.3977L65.5804 47.4674C65.063 51.4422 63.272 54.4605 60.5258 55.9648C59.3716 56.6123 58.2871 56.9211 57.2324 56.9211Z" fill="#FC98A4"/>
<path d="M43.4815 62.38C43.0636 62.38 42.6755 62.2007 42.4069 61.882C41.9193 61.2942 41.9989 60.4076 42.586 59.9195C44.2277 58.5548 46.4764 58.4751 48.8545 58.3954C52.1081 58.2858 54.924 58.1961 56.0583 55.0482C56.2573 54.5004 56.7846 54.1318 57.3617 54.1318C57.5209 54.1318 57.6801 54.1617 57.8393 54.2214C58.1876 54.3509 58.4662 54.6 58.6254 54.9387C58.7846 55.2774 58.8045 55.6559 58.6751 56.0046C56.8941 60.9256 52.3071 61.0651 48.954 61.1747H48.9142C47.0436 61.2444 45.2824 61.3042 44.377 62.0414C44.1183 62.2605 43.8098 62.38 43.4815 62.38Z" fill="#FC98A4"/>
<path d="M34.6459 4.96089C33.6907 4.96089 32.9047 4.18388 32.9047 3.2176C32.9047 2.25132 33.6808 1.4743 34.6459 1.4743C35.6011 1.4743 36.3872 2.25132 36.3872 3.2176C36.3872 4.18388 35.6011 4.96089 34.6459 4.96089Z" fill="#FC98A4"/>
<path d="M7.20377 14.3847C6.24857 14.3847 5.46252 13.6077 5.46252 12.6414C5.46252 11.685 6.23862 10.8981 7.20377 10.8981C8.16892 10.8981 8.94502 11.6751 8.94502 12.6414C8.93507 13.5977 8.15897 14.3847 7.20377 14.3847Z" fill="#FC98A4"/>
<path d="M64.1078 46.4413C62.3666 46.4413 60.9437 45.0268 60.9437 43.2735C60.9437 41.5302 62.3566 40.1057 64.1078 40.1057C65.8491 40.1057 67.2719 41.5203 67.2719 43.2735C67.262 45.0168 65.8491 46.4413 64.1078 46.4413Z" fill="#FC98A4"/>
<path d="M80.7442 25.2827C79.6796 24.7149 78.8537 23.918 78.2666 22.882C77.6796 21.8559 77.3811 20.6705 77.3811 19.3456C77.3811 18.0207 77.6796 16.8452 78.2666 15.8092C78.8537 14.7831 79.6796 13.9762 80.7343 13.4084C81.789 12.8406 83.0029 12.5517 84.366 12.5517C85.4903 12.5517 86.5251 12.7509 87.4704 13.1394C88.4156 13.5279 89.2116 14.0858 89.8584 14.813C90.5051 15.5402 90.9529 16.3869 91.2016 17.3532H86.6545C86.4356 17.0345 86.1271 16.7755 85.7391 16.5961C85.351 16.4168 84.9132 16.3272 84.4257 16.3272C83.57 16.3272 82.8834 16.6061 82.366 17.154C81.8486 17.7019 81.5899 18.4391 81.5899 19.3356C81.5899 20.2322 81.8486 20.9594 82.3561 21.5172C82.8735 22.085 83.5799 22.364 84.4854 22.364C85.0824 22.364 85.5898 22.2444 86.0077 21.9954C86.4256 21.7463 86.7341 21.4076 86.9331 20.9693H83.7391V18.2498H91.3907C91.4305 18.5885 91.4504 18.9172 91.4504 19.236C91.4504 20.5709 91.1618 21.7663 90.5847 22.8023C90.0076 23.8482 89.1917 24.6551 88.1271 25.2429C87.0624 25.8306 85.8286 26.1195 84.4356 26.1195C83.0327 26.1394 81.8088 25.8505 80.7442 25.2827Z" fill="#FC98A4"/>
<path d="M93.0723 12.8406H99.5C100.585 12.8406 101.53 13.0298 102.336 13.4184C103.132 13.8069 103.749 14.3548 104.176 15.072C104.604 15.7892 104.813 16.636 104.813 17.6222C104.813 18.4789 104.644 19.236 104.326 19.9034C103.997 20.5708 103.52 21.0988 102.903 21.5072L105.072 25.8605H100.127L98.5846 22.4038H97.5299V25.8605H93.0723V12.8406ZM98.7836 19.0866C99.2811 19.0866 99.6592 18.967 99.9278 18.7279C100.196 18.4889 100.326 18.1402 100.326 17.6919C100.326 17.2337 100.196 16.885 99.9278 16.6459C99.6592 16.4069 99.2811 16.2973 98.7836 16.2973H97.4602V19.0866H98.7836Z" fill="#FC98A4"/>
<path d="M109.44 25.2728C108.345 24.695 107.5 23.8981 106.893 22.862C106.286 21.836 105.987 20.6605 105.987 19.3456C105.987 18.0306 106.286 16.8651 106.893 15.8291C107.5 14.803 108.345 13.9961 109.44 13.4184C110.534 12.8406 111.778 12.5517 113.171 12.5517C114.584 12.5517 115.838 12.8406 116.922 13.4184C118.017 13.9961 118.863 14.7931 119.47 15.8291C120.076 16.8551 120.375 18.0306 120.375 19.3456C120.375 20.6605 120.067 21.836 119.47 22.862C118.863 23.8881 118.017 24.695 116.922 25.2728C115.828 25.8505 114.584 26.1394 113.171 26.1394C111.778 26.1394 110.534 25.8505 109.44 25.2728ZM111.261 21.2981C111.758 21.7961 112.395 22.0551 113.171 22.0551C113.947 22.0551 114.594 21.8061 115.092 21.2981C115.589 20.8 115.848 20.1525 115.848 19.3555C115.848 18.5586 115.599 17.9111 115.092 17.413C114.594 16.9149 113.947 16.6559 113.171 16.6559C112.395 16.6559 111.758 16.905 111.261 17.413C110.763 17.9111 110.515 18.5586 110.515 19.3555C110.515 20.1425 110.763 20.79 111.261 21.2981Z" fill="#FC98A4"/>
<path d="M124.823 25.2728C123.728 24.695 122.882 23.8981 122.275 22.862C121.668 21.836 121.37 20.6605 121.37 19.3456C121.37 18.0306 121.668 16.8651 122.275 15.8291C122.882 14.803 123.728 13.9961 124.823 13.4184C125.917 12.8406 127.161 12.5517 128.554 12.5517C129.967 12.5517 131.22 12.8406 132.305 13.4184C133.4 13.9961 134.245 14.7931 134.852 15.8291C135.459 16.8551 135.758 18.0306 135.758 19.3456C135.758 20.6605 135.449 21.836 134.852 22.862C134.245 23.8881 133.4 24.695 132.305 25.2728C131.211 25.8505 129.967 26.1394 128.554 26.1394C127.151 26.1394 125.907 25.8505 124.823 25.2728ZM126.643 21.2981C127.141 21.7961 127.778 22.0551 128.554 22.0551C129.33 22.0551 129.977 21.8061 130.474 21.2981C130.972 20.8 131.23 20.1525 131.23 19.3555C131.23 18.5586 130.982 17.9111 130.474 17.413C129.977 16.9149 129.33 16.6559 128.554 16.6559C127.778 16.6559 127.141 16.905 126.643 17.413C126.146 17.9111 125.897 18.5586 125.897 19.3555C125.897 20.1425 126.146 20.79 126.643 21.2981Z" fill="#FC98A4"/>
<path d="M137.409 12.8406H141.051L145.101 18.3095L149.17 12.8406H152.792V25.8605H148.404V22.862L148.444 20.1823H148.384L146.345 22.9915H143.857L141.817 20.1624L141.758 20.1823L141.797 22.862V25.8605H137.409V12.8406Z" fill="#FC98A4"/>
<path d="M155.13 12.8406H159.628V25.8605H155.13V12.8406Z" fill="#FC98A4"/>
<path d="M161.946 12.8406H165.588L169.747 18.459H169.817L169.777 16.8053V12.8406H174.175V25.8605H170.543L166.364 20.1923H166.304L166.344 21.9057V25.8705H161.946V12.8406Z" fill="#FC98A4"/>
<path d="M179.199 25.2827C178.135 24.7149 177.309 23.918 176.722 22.882C176.135 21.8559 175.836 20.6705 175.836 19.3456C175.836 18.0207 176.135 16.8452 176.722 15.8092C177.309 14.7831 178.135 13.9762 179.189 13.4084C180.244 12.8406 181.458 12.5517 182.821 12.5517C183.945 12.5517 184.98 12.7509 185.926 13.1394C186.871 13.5279 187.667 14.0858 188.314 14.813C188.96 15.5402 189.408 16.3869 189.657 17.3532H185.11C184.891 17.0345 184.582 16.7755 184.194 16.5961C183.806 16.4168 183.368 16.3272 182.881 16.3272C182.025 16.3272 181.339 16.6061 180.821 17.154C180.304 17.7019 180.045 18.4391 180.045 19.3356C180.045 20.2322 180.304 20.9594 180.811 21.5172C181.329 22.085 182.035 22.364 182.941 22.364C183.538 22.364 184.045 22.2444 184.463 21.9954C184.881 21.7463 185.189 21.4076 185.388 20.9693H182.194V18.2498H189.846C189.886 18.5885 189.906 18.9172 189.906 19.236C189.906 20.5709 189.617 21.7663 189.04 22.8023C188.463 23.8482 187.647 24.6551 186.582 25.2429C185.518 25.8306 184.284 26.1195 182.891 26.1195C181.498 26.1394 180.264 25.8505 179.199 25.2827Z" fill="#FC98A4"/>
<path d="M95.8881 42.0383C95.2115 41.4406 94.2264 41.1218 92.9528 41.1218H90.4653V48.0552H92.9528V48.0651C94.2264 48.0651 95.2015 47.7663 95.8881 47.1486C96.5647 46.5509 96.9129 45.6942 96.9129 44.5885C96.9129 43.5027 96.5647 42.646 95.8881 42.0383ZM94.1767 45.2161C94.0274 45.3555 93.6891 45.4452 93.2414 45.4651H93.0523V43.7019C93.6692 43.7119 94.0374 43.8414 94.1767 43.9609C94.2264 44.0107 94.3359 44.1303 94.3359 44.5885C94.3259 44.9172 94.2762 45.1264 94.1767 45.2161Z" fill="#FC98A4"/>
<path d="M108.246 36.8284C106.903 34.587 104.982 32.8536 102.545 31.6582C100.196 30.5127 97.4502 29.9349 94.3757 29.9349H77.3811V66.1855H93.2812V59.033H94.4752C97.5199 59.033 100.246 58.4552 102.574 57.3096C104.992 56.1241 106.893 54.3908 108.236 52.1793V52.1694C109.549 49.9778 110.226 47.3977 110.226 44.5088C110.226 41.61 109.559 39.0199 108.246 36.8284ZM106.037 50.8345C104.953 52.6276 103.42 54.0123 101.44 54.9885C99.4601 55.9648 97.1418 56.4529 94.4752 56.4529H90.7041V63.6054H79.9581V32.515H94.3757C97.0721 32.515 99.4104 33.0031 101.41 33.9793C103.41 34.9556 104.943 36.3502 106.027 38.1533C107.112 39.9563 107.639 42.0782 107.639 44.5088C107.649 46.9295 107.112 49.0414 106.037 50.8345Z" fill="#FC98A4"/>
<path d="M132.773 42.2376C132.136 41.6797 131.221 41.3908 130.046 41.3908H126.902V48.0552H130.046C131.23 48.0552 132.136 47.7663 132.773 47.1885C133.41 46.6107 133.728 45.7839 133.728 44.728C133.728 43.6322 133.41 42.7954 132.773 42.2376ZM131.041 45.2759C130.932 45.3755 130.614 45.4751 130.046 45.4751H129.479V43.9808H130.046C130.663 43.9808 130.972 44.1004 131.061 44.1801C131.071 44.21 131.141 44.3494 131.141 44.728C131.141 45.0368 131.091 45.2261 131.041 45.2759Z" fill="#FC98A4"/>
<path d="M143.131 54.5303C144.136 53.554 144.961 52.4184 145.598 51.1333C146.553 49.1908 147.041 46.9793 147.041 44.5487C147.041 41.7494 146.404 39.259 145.141 37.1372C143.857 34.9854 142.006 33.3218 139.648 32.1862C137.399 31.1004 134.753 30.5525 131.758 30.5525H113.838V66.8031H129.638V62.41L131.589 66.8031H149.24L143.131 54.5303ZM129.609 55.9548H127.081V64.223H116.435V33.1326H131.778C134.385 33.1326 136.633 33.5908 138.544 34.5073C140.454 35.4238 141.917 36.7487 142.942 38.4621C143.966 40.1854 144.474 42.2077 144.474 44.5487C144.474 46.5908 144.076 48.4038 143.3 49.9877C142.514 51.5716 141.379 52.8567 139.907 53.823L145.101 64.213H133.3L129.609 55.9548Z" fill="#FC98A4"/>
<path d="M170.105 42.905C168.235 42.905 166.712 43.5027 165.538 44.708C164.354 45.9034 163.767 47.4575 163.767 49.3502C163.767 51.2429 164.364 52.7969 165.538 53.9923C166.722 55.1877 168.244 55.7954 170.105 55.7954C171.976 55.7954 173.498 55.1977 174.702 53.9923C175.896 52.7969 176.503 51.2429 176.503 49.3502C176.503 47.4575 175.906 45.9034 174.702 44.708C173.498 43.5027 171.966 42.905 170.105 42.905ZM172.871 52.1594C172.165 52.8667 171.279 53.2053 170.105 53.2053C168.941 53.2053 168.075 52.8766 167.369 52.1693C166.672 51.4521 166.344 50.5555 166.344 49.3402C166.344 48.1149 166.672 47.2184 167.369 46.5211L167.379 46.5111C168.065 45.8038 168.941 45.485 170.105 45.485C171.279 45.485 172.165 45.8138 172.871 46.531C173.578 47.2383 173.916 48.1349 173.916 49.3402C173.916 50.5456 173.578 51.4421 172.871 52.1594Z" fill="#FC98A4"/>
<path d="M187.378 39.6375C185.677 36.7586 183.289 34.4973 180.274 32.9134C177.309 31.3395 173.886 30.5525 170.105 30.5525C166.354 30.5525 162.951 31.3494 159.986 32.9134C156.961 34.5073 154.573 36.7785 152.892 39.6276C151.21 42.4667 150.354 45.7341 150.354 49.3402C150.354 52.9464 151.21 56.2138 152.892 59.0529C154.593 61.9218 156.981 64.1831 159.986 65.7671C162.951 67.341 166.354 68.1379 170.115 68.1379C173.896 68.1379 177.309 67.341 180.284 65.777C183.299 64.1831 185.687 61.9218 187.378 59.0628C189.06 56.2238 189.916 52.9563 189.916 49.3502C189.906 45.764 189.05 42.4966 187.378 39.6375ZM185.15 57.7379C183.697 60.1985 181.677 62.1111 179.07 63.4858C176.463 64.8605 173.478 65.5479 170.105 65.5479C166.762 65.5479 163.787 64.8605 161.19 63.4858C158.583 62.1111 156.563 60.1885 155.11 57.7379C153.658 55.2874 152.931 52.4881 152.931 49.3402C152.931 46.1923 153.658 43.4031 155.11 40.9425C156.553 38.492 158.583 36.5693 161.19 35.1946C163.797 33.8199 166.762 33.1326 170.105 33.1326C173.478 33.1326 176.463 33.8199 179.07 35.1946C181.677 36.5693 183.697 38.492 185.15 40.9425C186.592 43.4031 187.329 46.2023 187.329 49.3402C187.329 52.4782 186.602 55.2774 185.15 57.7379Z" fill="#FC98A4"/>
</svg>
