<svg width="246" height="148" viewBox="0 0 246 148" fill="none" xmlns="http://www.w3.org/2000/svg">
<path d="M35.8297 44.5134C35.5079 44.5134 35.224 44.4378 35.0347 44.3811C34.2776 44.1353 33.6719 43.5872 33.3691 42.8689C32.1009 39.7691 30.2839 36.9527 28.0315 34.4766C26.0442 32.3029 23.7161 30.4694 21.1041 28.9951C20.2334 28.5037 19.7035 27.5397 19.7603 26.519C19.817 25.4983 20.4795 24.6099 21.4259 24.2319C23.8107 23.3057 26.4038 22.8143 28.9211 22.8143C29.1861 22.8143 29.47 22.8143 29.7539 22.8332C31.7035 22.9277 33.5962 23.2679 35.3943 23.8728C35.4511 23.2112 35.5457 22.5118 35.6404 21.7936C36.0189 19.3742 36.6625 17.0115 37.552 14.7244C37.836 14.0061 38.4038 13.4579 39.1041 13.1933C39.388 13.0799 39.6909 13.0421 39.9937 13.0421C40.448 13.0421 40.8833 13.1555 41.2808 13.3823C43.0978 14.403 44.7445 15.5938 46.3155 17.0115C47.205 17.862 48 18.6937 48.7003 19.5821C49.552 18.1456 50.5741 16.8413 51.7476 15.6505C54.4921 12.9098 57.4259 11.5111 59.3943 10.7928C59.6782 10.6983 59.9811 10.6416 60.265 10.6416C61.0032 10.6416 61.7035 10.944 62.1956 11.4733C62.9148 12.2482 63.1041 13.3634 62.6877 14.3274C61.1546 17.9187 60.1514 21.718 59.6972 25.6495C59.3375 28.8817 59.3754 32.1517 59.7729 35.3461C59.8864 36.0832 59.6404 36.8582 59.1293 37.4253C58.6183 37.9923 57.8991 38.3136 57.142 38.3136C53.0158 38.3325 48.9274 39.013 44.9905 40.355C42.265 41.2623 39.653 42.4909 37.2114 44.003C36.8707 44.3433 36.3785 44.5134 35.8297 44.5134ZM29.0347 28.1256C30.0379 28.9951 31.0032 29.9213 31.9117 30.9042C33.8991 33.059 35.6025 35.4784 37.0032 38.1246C39.0473 37.0472 41.205 36.121 43.3817 35.4028C46.9022 34.212 50.5741 33.4748 54.3028 33.2102C54.1325 30.4694 54.1893 27.7665 54.4921 25.1203C54.7003 23.2301 55.041 21.3399 55.4953 19.4876C53.735 21.2643 52.429 23.4947 51.7098 25.9519C51.4259 26.9915 50.5173 27.7476 49.4006 27.861C49.306 27.861 49.2303 27.8799 49.1546 27.8799C48.1514 27.8799 47.2429 27.3129 46.7886 26.4245C45.7666 24.3642 44.4038 22.5307 42.7192 20.9619C42.3218 20.5839 41.9054 20.2247 41.47 19.8845C41.224 20.8296 41.0347 21.7369 40.9022 22.6631C40.6372 24.3264 40.5237 26.0843 40.5804 27.8799C40.5994 28.8628 40.1073 29.7701 39.2744 30.2426C38.858 30.4694 38.3849 30.6018 37.9306 30.6018C37.4574 30.6018 37.0032 30.4694 36.5868 30.2426C35.3754 29.5433 32.8391 28.3336 29.5268 28.2012C29.3754 28.1445 29.205 28.1256 29.0347 28.1256Z" fill="#FC98A4"/>
<path d="M37.306 10.547C35.4889 10.547 33.9937 9.07265 33.9937 7.23919C33.9937 5.40573 35.47 3.9314 37.306 3.9314C39.123 3.9314 40.6183 5.40573 40.6183 7.23919C40.6183 9.07265 39.123 10.547 37.306 10.547Z" fill="#FC98A4"/>
<path d="M85.2871 144.522C84.9464 144.522 84.5868 144.465 84.3028 144.333C84 144.22 83.6404 144.031 83.1483 143.785L82.8265 143.634C79.4953 141.933 71.7161 137.944 61.1356 137.944C59.4322 137.944 57.7098 138.058 56.0252 138.266C53.3375 138.606 50.0063 139.532 46.4669 140.515L45.9937 140.647C45.123 140.893 44.2334 141.139 43.3249 141.384C43.1546 141.422 42.8896 141.479 42.5489 141.479C41.5268 141.479 40.5804 140.969 39.918 140.061C39.5962 139.627 39.2934 139.06 39.0095 138.322C38.6877 137.491 38.3659 136.451 38.0442 135.355C36.7382 140.458 35.9811 143.256 33.4637 143.653C30.5678 144.125 27.9369 144.352 25.4385 144.352C25.0789 144.352 24.7192 144.352 24.3596 144.333C23.489 144.314 22.7129 143.917 22.1451 143.256C21.2177 142.159 21.142 140.685 21.4826 138.058C18.6057 140.855 16.7129 142.405 14.858 142.405C14.4416 142.405 14.0252 142.33 13.6278 142.159C9.76656 140.534 6.43533 138.152 3.44479 134.882C2.91482 134.334 2.66876 133.559 2.78233 132.784C2.85804 132.009 3.27444 131.329 3.9369 130.913C12.8328 124.902 18.0379 118.287 19.4006 111.236C20.3849 106.057 19.6656 99.0825 18.9653 92.3346C18.2839 85.7002 17.5836 78.82 18.1514 72.3556C18.265 71.0892 18.6625 68.4619 19.9874 65.0596C22.8265 57.8202 28.2587 51.8662 36.1703 47.4054C43.8927 43.0202 51.2934 41.6215 53.3754 41.3002C55.9306 40.9032 58.5615 40.6953 61.1735 40.6953C67.1167 40.6953 73.0032 41.7538 78.1703 43.7574C86.4416 46.9518 92.3849 52.2064 95.3375 58.9354C98.1199 65.3242 96.9653 72.2233 96.265 76.3627C95.2808 82.2601 92.9338 87.647 89.0347 96.5875C88.0694 98.799 86.2902 105.566 85.5331 114.336C84.9085 121.443 84.8139 131.858 87.8612 141.063C88.183 142.046 87.918 143.105 87.1798 143.804C86.6309 144.258 85.9874 144.522 85.2871 144.522ZM24.7192 128.853C25.2681 128.853 25.7981 129.004 26.2524 129.325C28.0126 130.516 27.7098 132.406 27.1041 136.168C26.9148 137.34 26.7634 138.303 26.6877 139.041C28.2019 138.984 29.8107 138.833 31.571 138.587C32.0063 137.434 32.5741 135.185 32.9148 133.918C34.2397 128.815 34.8833 126.244 37.2492 125.715C37.4953 125.658 37.7224 125.639 37.9685 125.639C40.2019 125.639 41.205 128.078 41.5268 128.89V128.909C41.9811 130.081 42.4353 131.593 42.8139 132.935C43.0032 133.597 43.3628 134.844 43.6845 135.79C43.7224 135.79 43.7413 135.771 43.7792 135.771C44.0252 135.695 44.2902 135.638 44.5363 135.563L45.1041 135.412C48.795 134.391 52.2965 133.408 55.3628 133.03C57.2744 132.784 59.224 132.671 61.1546 132.671C67.8927 132.671 74.6309 134.126 81.2555 137.018C79.4953 128.55 79.6845 119.837 80.1956 113.883C80.9148 105.396 82.7129 97.7027 84.1136 94.4705L84.1325 94.4327C87.9748 85.549 90.0946 80.6534 90.9653 75.4744V75.4177C91.5899 71.6562 92.5363 65.9479 90.3975 61.0524C86.4606 52.0363 74.7066 45.9878 61.1356 45.9878C58.7886 45.9878 56.4227 46.1768 54.1136 46.5359C45.6908 47.859 30.0757 53.6429 24.8707 66.9875C23.735 69.8984 23.4322 72.0532 23.3754 72.8281C22.8454 78.7065 23.5079 85.2465 24.1703 91.5597L24.2271 92.1078C24.9842 99.4606 25.6845 106.397 24.5678 112.238C23.0726 119.931 18.0189 127.076 9.50157 133.446C11.1293 134.863 12.8896 136.016 14.8391 136.924C15.899 136.168 17.8864 134.221 18.9842 133.124L19.306 132.803C20.8391 131.291 22.164 129.987 23.1861 129.363C23.6404 129.004 24.1703 128.853 24.7192 128.853Z" fill="#FC98A4"/>
<path d="M37.5142 105.188C36.5678 105.188 35.6782 104.677 35.205 103.846C34.4858 102.561 34.9401 100.954 36.2271 100.236C40.4669 97.8729 44.2713 94.9053 47.5079 91.4085C51.3691 87.288 54.3975 82.4491 56.5173 77.0811C56.8959 76.0793 57.899 75.3988 58.9968 75.3988C59.205 75.3988 59.4132 75.4177 59.6214 75.4744C60.9085 75.7958 61.7602 77.0244 61.6088 78.3664C61.0789 82.9217 60.0946 87.4392 58.7129 91.7866C58.5994 92.1835 58.4669 92.5615 58.3344 92.9585C60.511 91.0494 62.5741 89.0269 64.5236 86.891C69.1419 81.8254 73.0599 76.2305 76.164 70.2576C76.5994 69.3692 77.5079 68.821 78.511 68.821C78.7382 68.821 78.9653 68.8588 79.1924 68.9156C80.3848 69.2369 81.1987 70.3143 81.1798 71.5618C80.9905 77.4402 79.8738 83.2241 77.8864 88.7623C77.4132 90.0854 76.8833 91.4085 76.2965 92.6938C77.47 91.7488 78.6057 90.7659 79.6845 89.7452C86.5173 83.2808 90.2271 76.6274 91.1924 74.7373C91.6467 73.8489 92.5552 73.3007 93.5394 73.3007C93.9558 73.3007 94.3912 73.4141 94.7697 73.6032C95.3943 73.9245 95.8675 74.4726 96.0757 75.1531C96.2839 75.8336 96.2271 76.5518 95.9054 77.1756C94.8643 79.2359 90.8517 86.4941 83.3375 93.62C79.2492 97.5138 74.6498 100.784 69.6719 103.317C69.3123 103.506 68.877 103.6 68.4606 103.6C67.6845 103.6 66.9464 103.26 66.4353 102.674C65.6404 101.748 65.5836 100.406 66.3028 99.4039C69.0662 95.6236 71.2808 91.4652 72.9085 87.0044C73.2681 86.0027 73.6088 84.9631 73.9117 83.9235C72.1893 86.2295 70.3722 88.441 68.4416 90.5391C64.0315 95.359 59.0347 99.6686 53.6025 103.335C53.1483 103.638 52.6372 103.789 52.1072 103.789C51.4637 103.789 50.858 103.562 50.3848 103.165C49.4763 102.371 49.2113 101.067 49.7413 99.9899C50.7255 98.0052 51.5962 95.9827 52.3533 93.9981C52.0315 94.3572 51.7098 94.7352 51.3691 95.0944C47.7539 98.9881 43.5142 102.296 38.7823 104.923C38.4227 105.056 37.9874 105.188 37.5142 105.188Z" fill="#FC98A4"/>
<path d="M108.871 108.004C107.981 108.004 107.11 107.891 106.315 107.683C103.495 106.927 101.83 104.923 101.073 103.789C99.9748 102.145 99.4637 100.236 99.5205 98.0996C98.6499 97.9295 97.9306 97.3436 97.571 96.5119C97.306 95.8503 97.306 95.1321 97.5899 94.4705C97.8738 93.8089 98.3849 93.3175 99.0473 93.0529C99.9559 92.6748 101.054 92.2401 102.151 91.8432L102.284 91.8054H102.303C102.568 91.7109 102.852 91.6731 103.117 91.6731C103.855 91.6731 104.574 91.9944 105.066 92.5425C105.804 93.3553 105.975 94.5083 105.483 95.4912C105.464 95.529 103.987 98.6289 105.502 100.897C105.767 101.313 106.505 102.277 107.678 102.598C108.076 102.712 108.454 102.749 108.871 102.749C109.968 102.749 111.199 102.371 112.618 101.578C116.385 99.5361 118.77 95.3211 119.546 89.4049L119.565 89.2536C120.076 85.3599 119.603 84.0935 119.281 83.6777C119.224 83.602 119.11 83.4886 118.694 83.4319C117.672 83.3374 112.41 82.5247 107.148 81.3906C96.0189 79.0278 93.6719 77.2511 92.7824 76.5895L92.7445 76.5706C92.1767 76.1359 91.8171 75.5121 91.7414 74.8128C91.6467 74.1134 91.8549 73.4141 92.2902 72.8659C92.7824 72.2232 93.5395 71.8452 94.3723 71.8452C94.959 71.8452 95.5458 72.0531 96 72.4123C99.142 74.8695 116.177 77.9126 119.11 78.1584H119.129H119.167C120.909 78.3285 122.385 79.1035 123.388 80.3699C125.413 82.9405 125.186 86.8342 124.77 89.9341L124.751 90.0664C123.767 97.6082 120.36 103.335 115.136 106.19C112.94 107.418 110.877 108.004 108.871 108.004Z" fill="#FC98A4"/>
<path d="M82.7129 118.362C81.918 118.362 81.1798 118.022 80.6688 117.417C79.7413 116.302 79.8927 114.62 81.0095 113.694C84.1325 111.104 88.4101 110.953 92.9337 110.802C99.123 110.594 104.479 110.424 106.637 104.451C107.016 103.411 108.019 102.712 109.117 102.712C109.42 102.712 109.722 102.768 110.025 102.882C110.688 103.127 111.218 103.6 111.52 104.243C111.823 104.885 111.861 105.604 111.615 106.265C108.227 115.603 99.5016 115.867 93.123 116.075H93.0473C89.4889 116.207 86.1388 116.321 84.4164 117.72C83.9243 118.135 83.3375 118.362 82.7129 118.362Z" fill="#FC98A4"/>
<path d="M65.9053 9.41294C64.0883 9.41294 62.593 7.93861 62.593 6.10515C62.593 4.27169 64.0694 2.79736 65.9053 2.79736C67.7224 2.79736 69.2176 4.27169 69.2176 6.10515C69.2176 7.93861 67.7224 9.41294 65.9053 9.41294Z" fill="#FC98A4"/>
<path d="M13.7034 27.2938C11.8864 27.2938 10.3911 25.8195 10.3911 23.986C10.3911 22.1715 11.8675 20.6782 13.7034 20.6782C15.5394 20.6782 17.0157 22.1526 17.0157 23.986C16.9968 25.8006 15.5205 27.2938 13.7034 27.2938Z" fill="#FC98A4"/>
<path d="M121.95 88.1194C118.637 88.1194 115.931 85.4353 115.931 82.1086C115.931 78.8008 118.618 76.0979 121.95 76.0979C125.262 76.0979 127.968 78.7819 127.968 82.1086C127.95 85.4164 125.262 88.1194 121.95 88.1194Z" fill="#FC98A4"/>
<path d="M148.486 66.9308C147.558 66.4394 146.839 65.74 146.347 64.8516C145.836 63.9632 145.59 62.9426 145.59 61.7896C145.59 60.6365 145.836 59.6348 146.347 58.7275C146.858 57.8391 147.577 57.1397 148.486 56.6483C149.394 56.1569 150.454 55.9111 151.628 55.9111C152.612 55.9111 153.502 56.0813 154.315 56.4215C155.129 56.7617 155.811 57.2343 156.379 57.8769C156.946 58.5007 157.325 59.2378 157.552 60.0695H153.615C153.426 59.786 153.161 59.5781 152.82 59.4268C152.479 59.2756 152.101 59.2 151.685 59.2C150.946 59.2 150.341 59.4457 149.905 59.9183C149.451 60.3908 149.224 61.0335 149.224 61.8085C149.224 62.5834 149.451 63.2072 149.886 63.6986C150.341 64.1901 150.946 64.4358 151.722 64.4358C152.233 64.4358 152.669 64.3224 153.047 64.1145C153.407 63.9065 153.672 63.6041 153.861 63.2261H151.098V60.8634H157.722C157.76 61.1469 157.779 61.4304 157.779 61.7139C157.779 62.8669 157.533 63.9065 157.022 64.7949C156.53 65.7022 155.811 66.4016 154.883 66.893C153.956 67.4033 152.896 67.6491 151.685 67.6491C150.473 67.668 149.413 67.4222 148.486 66.9308Z" fill="#FC98A4"/>
<path d="M159.18 56.1758H164.744C165.691 56.1758 166.505 56.3459 167.205 56.6672C167.905 57.0074 168.435 57.48 168.795 58.1037C169.173 58.7275 169.344 59.4647 169.344 60.2963C169.344 61.0335 169.192 61.6951 168.909 62.2621C168.625 62.8292 168.208 63.3017 167.678 63.6608L169.552 67.4223H165.274L163.931 64.4358H163.022V67.4223H159.18V56.1758ZM164.12 61.5817C164.555 61.5817 164.877 61.4682 165.104 61.2603C165.331 61.0524 165.445 60.75 165.445 60.3719C165.445 59.975 165.331 59.6726 165.104 59.4647C164.877 59.2568 164.536 59.1622 164.12 59.1622H162.984V61.5817H164.12Z" fill="#FC98A4"/>
<path d="M173.356 66.9119C172.41 66.4205 171.672 65.7211 171.161 64.8327C170.631 63.9443 170.366 62.9236 170.366 61.7896C170.366 60.6555 170.631 59.6348 171.161 58.7464C171.691 57.858 172.429 57.1586 173.356 56.6672C174.303 56.1758 175.382 55.9111 176.593 55.9111C177.823 55.9111 178.902 56.1569 179.849 56.6672C180.795 57.1586 181.533 57.858 182.044 58.7464C182.574 59.6348 182.839 60.6555 182.839 61.7896C182.839 62.9236 182.574 63.9443 182.044 64.8327C181.514 65.7211 180.776 66.4205 179.849 66.9119C178.902 67.4033 177.823 67.668 176.593 67.668C175.382 67.668 174.303 67.4222 173.356 66.9119ZM174.927 63.4718C175.363 63.9065 175.912 64.1145 176.593 64.1145C177.274 64.1145 177.823 63.9065 178.259 63.4718C178.694 63.0371 178.902 62.47 178.902 61.7896C178.902 61.1091 178.694 60.542 178.259 60.1073C177.823 59.6726 177.274 59.4646 176.593 59.4646C175.912 59.4646 175.363 59.6726 174.927 60.1073C174.492 60.542 174.284 61.1091 174.284 61.7896C174.284 62.4889 174.492 63.056 174.927 63.4718Z" fill="#FC98A4"/>
<path d="M186.681 66.9119C185.735 66.4205 184.997 65.7211 184.486 64.8327C183.956 63.9443 183.691 62.9236 183.691 61.7896C183.691 60.6555 183.956 59.6348 184.486 58.7464C185.016 57.858 185.754 57.1586 186.681 56.6672C187.628 56.1758 188.707 55.9111 189.918 55.9111C191.148 55.9111 192.227 56.1569 193.174 56.6672C194.12 57.1775 194.858 57.858 195.369 58.7464C195.899 59.6348 196.164 60.6555 196.164 61.7896C196.164 62.9236 195.899 63.9443 195.369 64.8327C194.839 65.7211 194.101 66.4205 193.174 66.9119C192.246 67.4033 191.148 67.668 189.918 67.668C188.688 67.668 187.609 67.4222 186.681 66.9119ZM188.252 63.4718C188.688 63.9065 189.237 64.1145 189.918 64.1145C190.599 64.1145 191.148 63.9065 191.584 63.4718C192.019 63.0371 192.227 62.47 192.227 61.7896C192.227 61.1091 192.019 60.542 191.584 60.1073C191.148 59.6726 190.599 59.4646 189.918 59.4646C189.237 59.4646 188.688 59.6726 188.252 60.1073C187.817 60.542 187.609 61.1091 187.609 61.7896C187.609 62.4889 187.817 63.056 188.252 63.4718Z" fill="#FC98A4"/>
<path d="M197.584 56.1758H200.744L204.246 60.9012L207.767 56.1758H210.909V67.4223H207.104V64.8327L207.142 62.5267H207.085L205.306 64.9462H203.148L201.369 62.5078L201.312 62.5267L201.35 64.8327V67.4223H197.546V56.1758H197.584Z" fill="#FC98A4"/>
<path d="M212.934 56.1758H216.833V67.4223H212.934V56.1758Z" fill="#FC98A4"/>
<path d="M218.839 56.1758H222L225.596 61.0335H225.653L225.615 59.597V56.1758H229.42V67.4223H226.259L222.644 62.5267H222.587L222.625 64.0011V67.4223H218.82V56.1758H218.839Z" fill="#FC98A4"/>
<path d="M233.773 66.9308C232.845 66.4394 232.126 65.74 231.634 64.8516C231.123 63.9632 230.877 62.9426 230.877 61.7896C230.877 60.6365 231.123 59.6348 231.634 58.7275C232.145 57.8391 232.864 57.1397 233.773 56.6483C234.681 56.1569 235.741 55.9111 236.915 55.9111C237.899 55.9111 238.789 56.0813 239.603 56.4215C240.416 56.7617 241.098 57.2343 241.666 57.8769C242.233 58.5196 242.612 59.2378 242.839 60.0695H238.902C238.713 59.786 238.448 59.5781 238.107 59.4268C237.767 59.2756 237.388 59.2 236.972 59.2C236.233 59.2 235.628 59.4457 235.192 59.9183C234.738 60.3908 234.511 61.0335 234.511 61.8085C234.511 62.5834 234.738 63.2072 235.173 63.6986C235.628 64.1901 236.233 64.4358 237.009 64.4358C237.52 64.4358 237.956 64.3224 238.334 64.1145C238.694 63.9065 238.959 63.6041 239.148 63.2261H236.385V60.8634H243.009C243.047 61.1469 243.066 61.4304 243.066 61.7139C243.066 62.8669 242.82 63.9065 242.309 64.7949C241.817 65.7022 241.098 66.4016 240.17 66.893C239.243 67.4033 238.183 67.6491 236.972 67.6491C235.76 67.668 234.7 67.4222 233.773 66.9308Z" fill="#FC98A4"/>
<path d="M146.309 71.7886H160.77C163.476 71.7886 165.823 72.28 167.811 73.2629C169.817 74.2458 171.35 75.6256 172.429 77.4402C173.508 79.2547 174.057 81.3717 174.057 83.7911C174.057 86.2105 173.508 88.3275 172.429 90.1232C171.35 91.9188 169.817 93.2987 167.83 94.2816C165.842 95.2644 163.514 95.7559 160.845 95.7559H157.06V102.901H146.309V71.7886ZM159.331 87.3257C160.599 87.3257 161.584 87.0233 162.265 86.4185C162.946 85.8136 163.287 84.963 163.287 83.8667C163.287 82.7704 162.946 81.9199 162.265 81.315C161.584 80.7102 160.599 80.4077 159.331 80.4077H156.833V87.3257H159.331Z" fill="#FC98A4"/>
<path d="M177.748 71.7886H193.136C195.748 71.7886 198 72.2422 199.912 73.1684C201.823 74.0946 203.3 75.3988 204.322 77.1188C205.344 78.8389 205.855 80.8614 205.855 83.2052C205.855 85.2466 205.457 87.0611 204.681 88.6489C203.886 90.2366 202.77 91.5219 201.274 92.4859L206.479 102.882H194.65L190.959 94.6218H188.423V102.882H177.748V71.7886ZM191.394 86.702C192.587 86.702 193.495 86.4185 194.12 85.8325C194.763 85.2466 195.085 84.4338 195.085 83.3753C195.085 82.279 194.763 81.4473 194.12 80.8803C193.476 80.3132 192.568 80.0297 191.394 80.0297H188.233V86.6831H191.394V86.702Z" fill="#FC98A4"/>
<path d="M216.908 101.464C214.297 100.084 212.271 98.1752 210.814 95.718C209.356 93.2608 208.637 90.4634 208.637 87.3257C208.637 84.188 209.356 81.3906 210.814 78.9333C212.271 76.4761 214.297 74.5671 216.908 73.1872C219.52 71.8074 222.492 71.127 225.842 71.127C229.23 71.127 232.221 71.8074 234.833 73.1872C237.445 74.5671 239.47 76.4761 240.927 78.9333C242.385 81.3906 243.104 84.188 243.104 87.3257C243.104 90.4634 242.385 93.2608 240.927 95.718C239.47 98.1752 237.445 100.084 234.833 101.464C232.221 102.844 229.23 103.524 225.842 103.524C222.511 103.543 219.52 102.844 216.908 101.464ZM221.281 91.9566C222.473 93.1474 223.987 93.7522 225.861 93.7522C227.735 93.7522 229.268 93.1474 230.461 91.9566C231.653 90.7658 232.259 89.2158 232.259 87.3068C232.259 85.4166 231.653 83.8667 230.461 82.657C229.268 81.4662 227.735 80.8613 225.861 80.8613C223.987 80.8613 222.473 81.4662 221.281 82.657C220.088 83.8478 219.502 85.3977 219.502 87.3068C219.502 89.2158 220.088 90.7658 221.281 91.9566Z" fill="#FC98A4"/>
</svg>
