<svg width="35" height="35" viewBox="0 0 35 35" fill="none" xmlns="http://www.w3.org/2000/svg">
<path d="M31.36 26.8056H28.0321C26.7735 26.8056 26.3944 25.7862 24.1383 23.5287C22.1667 21.6285 21.334 21.3923 20.8352 21.3923C20.1454 21.3923 19.9573 21.5819 19.9573 22.5312V25.5237C19.9573 26.3331 19.6948 26.8071 17.5802 26.8071C15.5288 26.6692 13.5394 26.046 11.776 24.9887C10.0126 23.9315 8.5256 22.4704 7.4375 20.7258C4.8539 17.5102 3.05624 13.7361 2.1875 9.70373C2.1875 9.20498 2.37708 8.75289 3.32792 8.75289H6.65292C7.5075 8.75289 7.81521 9.13352 8.15063 10.0129C9.765 14.7641 12.5198 18.8971 13.6383 18.8971C14.0671 18.8971 14.2538 18.7075 14.2538 17.6385V12.7444C14.1123 10.5116 12.9267 10.3235 12.9267 9.5156C12.9417 9.30245 13.0392 9.10355 13.1985 8.96113C13.3578 8.81872 13.5663 8.74402 13.7798 8.75289H19.0065C19.721 8.75289 19.9573 9.10873 19.9573 9.96331V16.5696C19.9573 17.2827 20.2635 17.5189 20.4794 17.5189C20.9081 17.5189 21.2377 17.2827 22.0238 16.4981C23.7086 14.4433 25.0852 12.154 26.11 9.70227C26.2149 9.40791 26.4132 9.15594 26.6747 8.98479C26.9361 8.81365 27.2464 8.73272 27.5581 8.75435H30.8846C31.8821 8.75435 32.0935 9.2531 31.8821 9.96477C30.6722 12.675 29.1752 15.2476 27.4167 17.6385C27.0579 18.1854 26.915 18.4698 27.4167 19.1114C27.7463 19.6102 28.9129 20.5844 29.696 21.5104C30.8365 22.6479 31.7829 23.9633 32.499 25.4041C32.7848 26.3316 32.3094 26.8056 31.36 26.8056Z" fill="white"/>
</svg>
