<svg width="25" height="25" viewBox="0 0 25 25" fill="none" xmlns="http://www.w3.org/2000/svg">
<g clip-path="url(#clip0_185_45)">
<path fill-rule="evenodd" clip-rule="evenodd" d="M7.75834 23.0552C9.25834 23 13.5094 22.4125 17.9615 17.9615C22.4125 13.5094 22.999 9.25939 23.0552 7.75834C23.1386 5.47084 21.3865 3.24897 19.3625 2.38126C19.1188 2.27602 18.8519 2.23595 18.588 2.26499C18.3241 2.29402 18.0723 2.39117 17.8573 2.54689C16.1906 3.76147 15.0406 5.59897 14.0531 7.04376C13.8359 7.36119 13.743 7.74746 13.7921 8.12897C13.8413 8.51048 14.0291 8.86056 14.3198 9.11251L16.3521 10.6219C16.4503 10.6928 16.5194 10.7969 16.5466 10.9149C16.5738 11.0329 16.5572 11.1568 16.5 11.2636C16.0396 12.1 15.2208 13.3458 14.2833 14.2833C13.3448 15.2208 12.0406 16.0938 11.1458 16.6063C11.0337 16.6692 10.9016 16.6868 10.7768 16.6555C10.6521 16.6241 10.544 16.5461 10.475 16.4375L9.15209 14.424C8.90888 14.1009 8.55009 13.8845 8.15087 13.82C7.75165 13.7555 7.34297 13.848 7.01043 14.0781C5.5448 15.0927 3.83439 16.2229 2.5823 17.8261C2.41394 18.0426 2.30684 18.3004 2.27221 18.5726C2.23758 18.8447 2.27668 19.1211 2.38543 19.3729C3.2573 21.4073 5.46355 23.1396 7.75834 23.0552Z" fill="white"/>
</g>
<defs>
<clipPath id="clip0_185_45">
<rect width="25" height="25" fill="white" transform="matrix(-1 0 0 1 25 0)"/>
</clipPath>
</defs>
</svg>
