<svg width="35" height="35" viewBox="0 0 35 35" fill="none" xmlns="http://www.w3.org/2000/svg">
<path d="M25.7842 8.19424C25.7842 8.19424 28.1892 7.24196 27.988 9.55446C27.9218 10.5067 27.3207 13.84 26.8527 17.4449L25.2494 28.1243C25.2494 28.1243 25.1156 29.6888 23.9128 29.9609C22.7106 30.2325 20.9067 29.0087 20.5724 28.7365C20.305 28.5322 15.5618 25.4711 13.8916 23.9751C13.4236 23.5665 12.8887 22.7506 13.9584 21.7984L20.9736 14.996C21.7752 14.1788 22.5769 12.2743 19.2365 14.5874L9.88259 21.0491C9.88259 21.0491 8.81348 21.7298 6.80961 21.1176L2.46633 19.7568C2.46633 19.7568 0.862981 18.7366 3.60229 17.7164C10.2837 14.5195 18.5017 11.2547 25.7836 8.19361" fill="white"/>
</svg>
